<svg width="24" height="24" viewBox="0 0 24 24" fill="none" xmlns="http://www.w3.org/2000/svg">
<path d="M7.00003 20C7.26525 20 7.5196 19.8946 7.70714 19.7071C7.89467 19.5196 8.00003 19.2652 8.00003 19C8.00003 18.7348 7.89467 18.4804 7.70714 18.2929C7.5196 18.1053 7.26525 18 7.00003 18C6.73481 18 6.48046 18.1053 6.29292 18.2929C6.10539 18.4804 6.00003 18.7348 6.00003 19C6.00003 19.2652 6.10539 19.5196 6.29292 19.7071C6.48046 19.8946 6.73481 20 7.00003 20ZM8.00003 12.998V16.171C8.66752 16.4069 9.23012 16.8712 9.58839 17.4818C9.94666 18.0924 10.0775 18.81 9.95784 19.5078C9.83817 20.2055 9.47566 20.8385 8.9344 21.2949C8.39314 21.7512 7.70798 22.0015 7.00003 22.0015C6.29208 22.0015 5.60692 21.7512 5.06566 21.2949C4.5244 20.8385 4.16189 20.2055 4.04222 19.5078C3.92254 18.81 4.0534 18.0924 4.41167 17.4818C4.76994 16.8712 5.33254 16.4069 6.00003 16.171V7.82899C5.33254 7.59309 4.76994 7.1288 4.41167 6.51819C4.0534 5.90758 3.92254 5.18997 4.04222 4.4922C4.16189 3.79444 4.5244 3.16145 5.06566 2.70512C5.60692 2.24879 6.29208 1.9985 7.00003 1.9985C7.70798 1.9985 8.39314 2.24879 8.9344 2.70512C9.47566 3.16145 9.83817 3.79444 9.95784 4.4922C10.0775 5.18997 9.94666 5.90758 9.58839 6.51819C9.23012 7.1288 8.66752 7.59309 8.00003 7.82899V10.169C8.31203 10.059 8.64703 9.99899 8.99703 9.99799L15.034 9.99199C15.2991 9.99173 15.5532 9.88625 15.7405 9.69875C15.9278 9.51124 16.033 9.25704 16.033 8.99199V7.83999C15.3614 7.60989 14.7931 7.14912 14.4291 6.53957C14.0651 5.93002 13.929 5.21117 14.045 4.51075C14.161 3.81033 14.5215 3.17371 15.0625 2.71402C15.6036 2.25432 16.2901 2.00133 17 1.99999C17.7049 1.9997 18.3874 2.24763 18.9278 2.70028C19.4681 3.15294 19.8318 3.78141 19.9551 4.47545C20.0783 5.16949 19.9532 5.88476 19.6018 6.49579C19.2503 7.10681 18.6949 7.57457 18.033 7.81699V8.99199C18.033 9.78712 17.7174 10.5497 17.1554 11.1123C16.5935 11.6748 15.8312 11.9912 15.036 11.992L8.99903 11.998C8.73399 11.9983 8.47989 12.1037 8.29257 12.2912C8.10525 12.4787 8.00003 12.7329 8.00003 12.998ZM7.00003 5.99999C7.26525 5.99999 7.5196 5.89464 7.70714 5.7071C7.89467 5.51956 8.00003 5.26521 8.00003 4.99999C8.00003 4.73478 7.89467 4.48042 7.70714 4.29289C7.5196 4.10535 7.26525 3.99999 7.00003 3.99999C6.73481 3.99999 6.48046 4.10535 6.29292 4.29289C6.10539 4.48042 6.00003 4.73478 6.00003 4.99999C6.00003 5.26521 6.10539 5.51956 6.29292 5.7071C6.48046 5.89464 6.73481 5.99999 7.00003 5.99999ZM17 5.99999C17.2652 5.99999 17.5196 5.89464 17.7071 5.7071C17.8947 5.51956 18 5.26521 18 4.99999C18 4.73478 17.8947 4.48042 17.7071 4.29289C17.5196 4.10535 17.2652 3.99999 17 3.99999C16.7348 3.99999 16.4805 4.10535 16.2929 4.29289C16.1054 4.48042 16 4.73478 16 4.99999C16 5.26521 16.1054 5.51956 16.2929 5.7071C16.4805 5.89464 16.7348 5.99999 17 5.99999Z" fill="#477ABC"/>
</svg>
