<svg width="100" height="100" viewBox="0 0 100 100" fill="none" xmlns="http://www.w3.org/2000/svg">
<path d="M98.0467 96.0938H96.4842V39.0626C96.4842 37.9839 95.6098 37.1095 94.5311 37.1095H78.9061C77.8274 37.1095 76.953 37.9839 76.953 39.0626V59.961C76.953 61.0397 77.8274 61.9141 78.9061 61.9141C79.9848 61.9141 80.8592 61.0397 80.8592 59.961V41.0157H92.5779V96.0938H80.8592V79.0987C80.8592 78.02 79.9848 77.1456 78.9061 77.1456C77.8274 77.1456 76.953 78.02 76.953 79.0987V96.0938H72.2655V51.9532C72.2655 50.8745 71.3911 50.0001 70.3124 50.0001H54.6874C53.6087 50.0001 52.7343 50.8745 52.7343 51.9532V96.0938H47.2655V64.0626C47.2655 62.9839 46.3911 62.1095 45.3124 62.1095H29.6874C28.6087 62.1095 27.7343 62.9839 27.7343 64.0626V96.0938H23.0468V76.5626C23.0468 75.4838 22.1724 74.6094 21.0937 74.6094H5.46874C4.39003 74.6094 3.51562 75.4838 3.51562 76.5626V96.0938H1.95312C0.874412 96.0938 0 96.9682 0 98.0469C0 99.1256 0.874412 100 1.95312 100H98.0467C99.1254 100 99.9998 99.1256 99.9998 98.0469C99.9998 96.9682 99.1254 96.0938 98.0467 96.0938ZM19.1406 96.0938H7.42186V78.5157H19.1406V96.0938ZM43.3593 96.0938H31.6406V66.0157H43.3593V96.0938ZM68.3592 96.0938H56.6405V53.9063H68.3592V96.0938Z" fill="#477ABC"/>
<path d="M80.287 67.7384C79.9237 67.3751 79.4198 67.168 78.9061 67.168C78.3924 67.168 77.8885 67.3751 77.5253 67.7384C77.162 68.1016 76.953 68.6055 76.953 69.1212C76.953 69.6348 77.162 70.1368 77.5253 70.502C77.8885 70.8655 78.3924 71.0743 78.9061 71.0743C79.4198 71.0743 79.9237 70.8653 80.287 70.502C80.6502 70.1368 80.8592 69.6348 80.8592 69.1212C80.8592 68.6055 80.6502 68.1016 80.287 67.7384Z" fill="#477ABC"/>
<path d="M85.1563 0C76.9713 0 70.3126 6.65878 70.3126 14.8437C70.3126 23.0287 76.9715 29.6874 85.1563 29.6874C93.3412 29.6874 100 23.0287 100 14.8437C100 6.65878 93.3412 0 85.1563 0ZM85.1563 20.5259C83.9348 20.5259 82.9413 19.705 82.9413 18.6963C82.9413 17.6175 82.0668 16.7431 80.9881 16.7431C79.9094 16.7431 79.035 17.6175 79.035 18.6963C79.035 21.2191 80.7831 23.3652 83.2032 24.131V25.6031C78.1014 24.6791 74.2188 20.2078 74.2188 14.8437C74.2188 9.47967 78.1014 5.00839 83.2032 4.08437V5.69589C80.7831 6.46171 79.035 8.6078 79.035 11.1306C79.035 14.2935 81.7811 16.8666 85.1563 16.8666C86.3776 16.8666 87.3713 17.6873 87.3713 18.6963C87.3713 19.7052 86.3778 20.5259 85.1563 20.5259ZM87.1094 25.6031V24.131C89.5295 23.3652 91.2776 21.2191 91.2776 18.6963C91.2776 15.5336 88.5315 12.9603 85.1563 12.9603C83.935 12.9603 82.9413 12.1394 82.9413 11.1306C82.9413 10.1219 83.9348 9.30096 85.1563 9.30096C86.3778 9.30096 87.3713 10.1219 87.3713 11.1306C87.3713 12.2094 88.2457 13.0838 89.3245 13.0838C90.4032 13.0838 91.2776 12.2094 91.2776 11.1306C91.2776 8.6078 89.5295 6.46171 87.1094 5.69589V4.08437C92.2114 5.00839 96.0938 9.47967 96.0938 14.8437C96.0938 20.2078 92.2112 24.6791 87.1094 25.6031Z" fill="#477ABC"/>
<path d="M69.5307 25.267H61.8842C60.8055 25.267 59.9311 26.1414 59.9311 27.2201C59.9311 28.2988 60.8055 29.1732 61.8842 29.1732H64.8153L43.9327 50.056L33.3232 39.4464C32.5605 38.6839 31.3238 38.6839 30.5609 39.4464L9.31989 60.6872C8.5572 61.4499 8.5572 62.6866 9.31989 63.4493C9.70114 63.8307 10.2011 64.0216 10.7009 64.0216C11.2007 64.0216 11.7007 63.8307 12.082 63.4495L31.9419 43.5896L42.5515 54.1991C43.3142 54.9618 44.5509 54.9618 45.3138 54.1991L67.5776 31.9353V34.8665C67.5776 35.9453 68.452 36.8197 69.5307 36.8197C70.6094 36.8197 71.4838 35.9453 71.4838 34.8665V27.2201C71.4838 26.1414 70.6094 25.267 69.5307 25.267Z" fill="#477ABC"/>
<path d="M7.00387 65.7659C6.64059 65.4026 6.13668 65.1936 5.62301 65.1936C5.10934 65.1936 4.60544 65.4026 4.24216 65.7659C3.87888 66.1292 3.66989 66.6331 3.66989 67.1467C3.66989 67.6604 3.87888 68.1643 4.24216 68.5276C4.60544 68.8907 5.10934 69.0999 5.62301 69.0999C6.13668 69.0999 6.64059 68.8909 7.00387 68.5276C7.36715 68.1643 7.57613 67.6604 7.57613 67.1467C7.57613 66.6331 7.36715 66.1292 7.00387 65.7659Z" fill="#477ABC"/>
</svg>
