<svg width="18" height="18" viewBox="0 0 18 18" fill="none" xmlns="http://www.w3.org/2000/svg">
<path d="M7.94109 12.8034C7.84264 12.8036 7.74512 12.7844 7.65413 12.7468C7.56313 12.7092 7.48046 12.654 7.41084 12.5844L4.22934 9.40215C4.15766 9.33302 4.10047 9.2503 4.0611 9.15882C4.02173 9.06735 4.00097 8.96895 4.00003 8.86937C3.9991 8.76978 4.018 8.67101 4.05565 8.57881C4.0933 8.48662 4.14893 8.40284 4.2193 8.33237C4.28966 8.2619 4.37336 8.20615 4.46551 8.16838C4.55765 8.1306 4.6564 8.11155 4.75598 8.11235C4.85557 8.11314 4.95399 8.13376 5.04552 8.173C5.13705 8.21224 5.21985 8.26932 5.28909 8.3409L7.94034 10.9922L12.7141 6.2199C12.8547 6.07917 13.0455 6.00007 13.2444 6C13.4434 5.99993 13.6342 6.0789 13.775 6.21953C13.9157 6.36016 13.9948 6.55093 13.9949 6.74989C13.9949 6.94884 13.916 7.13967 13.7753 7.2804L8.47134 12.5844C8.40172 12.654 8.31905 12.7092 8.22805 12.7468C8.13706 12.7844 8.03954 12.8036 7.94109 12.8034Z" fill="#FBFBFB"/>
</svg>
