<svg width="100" height="100" viewBox="0 0 100 100" fill="none" xmlns="http://www.w3.org/2000/svg">
<path d="M66.7878 64.2999C64.4184 64.2999 62.4909 62.6117 62.4909 60.5368C62.4909 58.4617 64.4184 56.7736 66.7878 56.7736C69.1571 56.7736 71.0846 58.4617 71.0846 60.5368C71.0846 61.6281 71.9592 62.5131 73.0378 62.5131C74.1163 62.5131 74.9909 61.6281 74.9909 60.5368C74.9909 56.9153 72.3241 53.8703 68.7409 53.0438V52.0159C68.7409 50.9246 67.8663 50.0396 66.7878 50.0396C65.7093 50.0396 64.8346 50.9246 64.8346 52.0159V53.0438C61.2514 53.8703 58.5847 56.9153 58.5847 60.5368C58.5847 64.7912 62.2645 68.2524 66.7878 68.2524C69.1571 68.2524 71.0846 69.9406 71.0846 72.0157C71.0846 74.0908 69.1571 75.7789 66.7878 75.7789C64.4184 75.7789 62.4909 74.0908 62.4909 72.0157C62.4909 70.9244 61.6163 70.0394 60.5378 70.0394C59.4593 70.0394 58.5847 70.9244 58.5847 72.0157C58.5847 75.6372 61.2514 78.6823 64.8346 79.5087V80.3625C64.8346 81.4538 65.7093 82.3388 66.7878 82.3388C67.8663 82.3388 68.7409 81.4538 68.7409 80.3625V79.5087C72.3241 78.6823 74.9909 75.6372 74.9909 72.0157C74.9909 67.7611 71.311 64.2999 66.7878 64.2999Z" fill="#477ABC"/>
<path d="M88.1799 52.5445C85.6286 48.5218 82.034 45.3029 77.785 43.2361C76.8126 42.7629 75.6456 43.1772 75.1784 44.161C74.711 45.1448 75.1202 46.3254 76.0924 46.7983C83.4969 50.3999 88.2811 58.0953 88.2811 66.4032C88.2811 69.9582 87.4151 73.4836 85.777 76.599C85.2704 77.5625 85.6315 78.7593 86.5838 79.272C86.876 79.4293 87.1901 79.504 87.4995 79.504C88.1983 79.504 88.8743 79.1234 89.2254 78.4556C91.1631 74.771 92.1873 70.6032 92.1873 66.4032C92.1873 61.4704 90.8016 56.6781 88.1799 52.5445Z" fill="#477ABC"/>
<path d="M69.8579 40.7118L69.7264 40.7116C68.6479 40.7116 67.7733 41.5964 67.7733 42.6879C67.7733 43.7794 68.6479 44.6641 69.7264 44.6641L69.8395 44.6643C69.8426 44.6643 69.8456 44.6643 69.8489 44.6643C70.9233 44.6643 71.7967 43.7857 71.8018 42.6973C71.8067 41.6059 70.9364 40.7169 69.8579 40.7118Z" fill="#477ABC"/>
<path d="M57.5012 86.0081C50.097 82.4063 45.3128 74.7109 45.3128 66.4032C45.3128 62.8483 46.1788 59.3228 47.8169 56.2074C48.3235 55.244 47.9624 54.0471 47.0101 53.5345C46.0581 53.0218 44.8749 53.3872 44.3685 54.3509C42.4308 58.0357 41.4066 62.2032 41.4066 66.4032C41.4066 71.336 42.7923 76.1281 45.414 80.2619C47.9653 84.2846 51.5599 87.5036 55.8089 89.5706C56.0817 89.7034 56.37 89.766 56.6538 89.766C57.3811 89.766 58.0792 89.3532 58.4155 88.6457C58.8825 87.6619 58.4735 86.481 57.5012 86.0081Z" fill="#477ABC"/>
<path d="M63.8675 88.1423L63.7544 88.1419C62.6708 88.1399 61.7973 89.0172 61.7925 90.1089C61.7874 91.2004 62.6581 92.0893 63.7366 92.0945L63.8675 92.0948C64.946 92.0948 65.8206 91.2099 65.8206 90.1186C65.8206 89.0273 64.946 88.1423 63.8675 88.1423Z" fill="#477ABC"/>
<path d="M75.6657 34.0252C75.428 33.4521 75.1368 32.912 74.7979 32.411H79.8827C84.8366 32.411 88.867 28.3328 88.867 23.3201C88.867 18.3075 84.8366 14.2292 79.8827 14.2292H64.2421C65.2364 12.7664 65.8202 10.9966 65.8202 9.09089C65.8202 4.07825 61.7897 0 56.8358 0H8.98436C4.03046 0 0 4.07825 0 9.09089C0 14.1035 4.03046 18.1818 8.98436 18.1818H24.625C23.6306 19.6446 23.0468 21.4144 23.0468 23.3201C23.0468 25.2258 23.6304 26.9956 24.625 28.4584H19.5312C14.5773 28.4584 10.5469 32.5367 10.5469 37.5493C10.5469 40.4282 11.8777 42.9971 13.9482 44.6639C11.8777 46.3307 10.5469 48.8997 10.5469 51.7785C10.5469 54.6574 11.8777 57.2264 13.9482 58.8932C11.8777 60.56 10.5469 63.1289 10.5469 66.0078C10.5469 68.8866 11.8777 71.4556 13.9482 73.1224C11.8777 74.7892 10.5469 77.3581 10.5469 80.237C10.5469 85.2496 14.5773 89.3279 19.5312 89.3279H42.5487C48.6124 95.8905 57.2386 100 66.7969 100C85.1051 100 100 84.9285 100 66.4032C100 50.9849 89.6817 37.961 75.6657 34.0252ZM79.8827 18.1818C82.6828 18.1818 84.9608 20.4869 84.9608 23.3201C84.9608 26.1533 82.6828 28.4584 79.8827 28.4584H32.0312C29.231 28.4584 26.9531 26.1533 26.9531 23.3201C26.9531 20.4869 29.231 18.1818 32.0312 18.1818H79.8827ZM8.98436 14.2292C6.18417 14.2292 3.90624 11.9241 3.90624 9.09089C3.90624 6.2577 6.18417 3.95256 8.98436 3.95256H56.8358C59.636 3.95256 61.9139 6.2577 61.9139 9.09089C61.9139 11.9241 59.636 14.2292 56.8358 14.2292H8.98436ZM19.5312 32.411H67.3827C68.1694 32.411 68.9227 32.596 69.5985 32.9272C68.6747 32.8487 67.7407 32.8065 66.7969 32.8065C57.628 32.8065 49.3155 36.5869 43.3011 42.6877H19.5312C16.7312 42.6877 14.4531 40.3825 14.4531 37.5493C14.4531 34.7161 16.7312 32.411 19.5312 32.411ZM19.5312 46.6402H39.9638C37.7466 49.7139 36.0324 53.1807 34.9437 56.9169H19.5312C16.731 56.9169 14.4531 54.6119 14.4531 51.7785C14.4531 48.9454 16.731 46.6402 19.5312 46.6402ZM19.5312 60.8694H34.0468C33.7505 62.6704 33.5939 64.5184 33.5939 66.4032C33.5939 68.0131 33.7089 69.5961 33.9263 71.1461H19.5312C16.731 71.1461 14.4531 68.8412 14.4531 66.0078C14.4531 63.1744 16.731 60.8694 19.5312 60.8694ZM19.5312 85.3753C16.731 85.3753 14.4531 83.0704 14.4531 80.237C14.4531 77.4036 16.731 75.0987 19.5312 75.0987H34.7238C35.7093 78.8166 37.3103 82.2817 39.4099 85.3753H19.5312ZM66.7969 96.0474C50.6427 96.0474 37.5001 82.749 37.5001 66.4032C37.5001 50.0574 50.6427 36.759 66.7969 36.759C82.9512 36.759 96.0938 50.0574 96.0938 66.4032C96.0938 82.749 82.9512 96.0474 66.7969 96.0474Z" fill="#477ABC"/>
</svg>
