<svg id="Слой_1" data-name="Слой 1" xmlns="http://www.w3.org/2000/svg" viewBox="0 0 332 349"><defs><style>.cls-1{fill:#fff;fill-rule:evenodd;}</style></defs><title>curve-sm</title><path class="cls-1" d="M15.59,0A14.1,14.1,0,0,0,1.49,14.1V161a17.12,17.12,0,0,1,11.63,4.47,14.51,14.51,0,0,1,0,21.6,17.09,17.09,0,0,1-11.63,4.48V334.9A14.1,14.1,0,0,0,15.59,349H316.41a14.1,14.1,0,0,0,14.1-14.1V191.54a17.09,17.09,0,0,1-11.63-4.48,14.51,14.51,0,0,1,0-21.6A17.12,17.12,0,0,1,330.51,161V14.1A14.1,14.1,0,0,0,316.41,0Z"/></svg>