<svg id="Слой_1" data-name="Слой 1" xmlns="http://www.w3.org/2000/svg" viewBox="0 0 701 252"><defs><style>.cls-1{fill:#fff;}</style></defs><title>curve</title><path class="cls-1" d="M12.54,251.5a12.05,12.05,0,0,1-12-12V127h0A15.14,15.14,0,0,0,15.65,111.9,15.15,15.15,0,0,0,.52,96.77h0V12.53a12.05,12.05,0,0,1,12-12H688.46a12.05,12.05,0,0,1,12,12V96.77h0a15.13,15.13,0,1,0,0,30.25h0V239.47a12.05,12.05,0,0,1-12,12Z"/><path class="cls-1" d="M688.46,1A11.55,11.55,0,0,1,700,12.53V96.28a15.63,15.63,0,0,0,0,31.24v112A11.55,11.55,0,0,1,688.46,251H12.54A11.55,11.55,0,0,1,1,239.47V127.52A15.65,15.65,0,0,0,16.15,111.9,15.64,15.64,0,0,0,1,96.28V12.53A11.55,11.55,0,0,1,12.54,1H688.46m0-1H12.54A12.57,12.57,0,0,0,0,12.53V97.28H.52a14.63,14.63,0,1,1,0,29.25H0v113A12.57,12.57,0,0,0,12.54,252H688.46A12.57,12.57,0,0,0,701,239.47v-113h-.52a14.63,14.63,0,1,1,0-29.25H701V12.53A12.57,12.57,0,0,0,688.46,0Z"/></svg>