<svg width="24" height="23" viewBox="0 0 24 23" fill="none" xmlns="http://www.w3.org/2000/svg">
<path d="M12.0711 12.6829L17.0211 8.22789C17.1134 8.14193 17.2237 8.07336 17.3457 8.02619C17.4677 7.97903 17.599 7.9542 17.7317 7.95316C17.8645 7.95212 17.9962 7.97489 18.1191 8.02015C18.242 8.0654 18.3536 8.13223 18.4475 8.21673C18.5414 8.30123 18.6157 8.40172 18.666 8.51233C18.7162 8.62293 18.7415 8.74144 18.7404 8.86095C18.7392 8.98045 18.7117 9.09855 18.6592 9.20835C18.6068 9.31815 18.5307 9.41746 18.4351 9.50048L12.7781 14.5918C12.5906 14.7605 12.3363 14.8553 12.0711 14.8553C11.806 14.8553 11.5517 14.7605 11.3641 14.5918L5.70714 9.50048C5.61163 9.41746 5.53545 9.31815 5.48304 9.20835C5.43063 9.09855 5.40305 8.98045 5.40189 8.86095C5.40074 8.74144 5.42604 8.62293 5.47632 8.51233C5.5266 8.40172 5.60086 8.30123 5.69475 8.21673C5.78864 8.13223 5.90029 8.0654 6.02319 8.02015C6.14609 7.97489 6.27777 7.95212 6.41054 7.95316C6.54332 7.9542 6.67454 7.97903 6.79655 8.02619C6.91855 8.07336 7.0289 8.14193 7.12114 8.22789L12.0711 12.6829Z" fill="#477ABC"/>
</svg>
