<svg width="24" height="24" viewBox="0 0 24 24" fill="none" xmlns="http://www.w3.org/2000/svg">
<path d="M20.572 5.083L12.676 12.12C12.4928 12.2833 12.2559 12.3736 12.0105 12.3736C11.7651 12.3736 11.5282 12.2833 11.345 12.12L3.416 5.087C3.60529 5.02927 3.8021 4.99995 4 5H20C20.1937 4.99983 20.3864 5.02778 20.572 5.083ZM21.928 6.468C21.975 6.638 22 6.816 22 7V17C22 17.5304 21.7893 18.0391 21.4142 18.4142C21.0391 18.7893 20.5304 19 20 19H4C3.46957 19 2.96086 18.7893 2.58579 18.4142C2.21071 18.0391 2 17.5304 2 17V7C1.9998 6.81957 2.02402 6.63994 2.072 6.466L10.014 13.614C10.5635 14.1037 11.2739 14.3744 12.01 14.3744C12.7461 14.3744 13.4565 14.1037 14.006 13.614L21.928 6.468Z" fill="#477ABC"/>
</svg>
