<svg width="100" height="100" viewBox="0 0 100 100" fill="none" xmlns="http://www.w3.org/2000/svg">
<path d="M87.3328 48.8275C87.6809 49.0865 88.0905 49.2137 88.4981 49.2137C89.0016 49.2137 89.5026 49.0195 89.8811 48.6402L99.4293 39.0727C99.8301 38.6711 100.036 38.1154 99.9947 37.5496C99.9531 36.984 99.6678 36.4643 99.2127 36.1258L89.453 28.866V9.375C89.453 8.29629 88.5784 7.42188 87.4998 7.42188H74.9999C73.9214 7.42188 73.0467 8.29629 73.0467 9.375V16.6623L51.1657 0.386133C50.4738 -0.128711 49.5261 -0.128711 48.8341 0.386133L31.7316 13.108C30.8662 13.7518 30.6863 14.9754 31.3302 15.8408C31.9742 16.7064 33.1978 16.8861 34.063 16.2422L49.9999 4.3875L95.0688 37.9119L88.3092 44.6854L51.1657 17.0563C50.4738 16.5414 49.5261 16.5414 48.8341 17.0563L11.6908 44.6854L4.93128 37.9119L22.4455 24.884C23.3109 24.2402 23.4908 23.0166 22.8469 22.1512C22.2029 21.2855 20.9795 21.1061 20.1141 21.7498L0.78734 36.1258C0.332263 36.4643 0.0469121 36.984 0.00531065 37.5496C-0.0364861 38.1152 0.169959 38.6711 0.570739 39.0727L10.119 48.6402C10.8039 49.3266 11.8889 49.4064 12.6672 48.8275L14.0625 47.7895V63.2813H3.90628C1.75238 63.2813 3.72228e-05 65.0336 3.72228e-05 67.1875V96.0938C3.72228e-05 98.2477 1.75238 100 3.90628 100H17.1875C19.1385 100 20.7553 98.5607 21.0433 96.6893L30.1271 99.8891C30.3355 99.9625 30.5548 100 30.7759 100H58.6649C61.8917 100 65.0249 98.8522 67.4878 96.7678L88.6147 78.8883C90.2883 77.4719 91.2799 75.4863 91.4061 73.2973C91.5324 71.1082 90.7762 69.0217 89.2768 67.4221C88.3287 66.4107 87.1741 65.7037 85.9373 65.3043V47.7895L87.3328 48.8275ZM85.5467 25.9604L76.953 19.568V11.3281H85.5467V25.9604ZM17.1875 96.0938H3.90628V67.1875H8.59377V81.6406C8.59377 82.7193 9.46838 83.5938 10.5469 83.5938C11.6254 83.5938 12.5 82.7193 12.5 81.6406V67.1875H17.1875V68.7473C17.1875 68.7482 17.1875 68.749 17.1875 68.75C17.1875 68.751 17.1875 68.7518 17.1875 68.7527L17.1896 93.86C17.1875 93.9051 17.1887 93.95 17.1896 93.9947L17.19 96.0938C17.19 96.0938 17.1893 96.0938 17.1875 96.0938ZM86.4266 70.0934C87.187 70.9043 87.5702 71.9621 87.5063 73.0719C87.4422 74.1816 86.9397 75.1883 86.091 75.9065L64.9641 93.7859C63.2058 95.2742 60.9687 96.0938 58.6647 96.0938H31.1099L21.0937 92.5654V70.7031H35.4209C37.3525 70.7031 39.2228 71.2693 40.8298 72.3408L53.896 81.0516C54.4792 81.4404 54.8681 82.0346 54.9909 82.7248C55.1138 83.415 54.954 84.107 54.5407 84.6733C53.8181 85.6633 52.4905 85.9992 51.3847 85.4703L40.2064 80.1309C39.2326 79.6658 38.0669 80.0779 37.6021 81.0514C37.1371 82.0246 37.5492 83.1906 38.5226 83.6555L49.7009 88.9949C50.5923 89.4209 51.5403 89.6252 52.478 89.6252C54.4872 89.6252 56.448 88.6859 57.6962 86.9756C58.7429 85.5412 59.1479 83.7883 58.8368 82.0399C58.5255 80.2916 57.5403 78.7863 56.0628 77.8012L42.9966 69.0904C40.7458 67.59 38.1261 66.7969 35.4211 66.7969H21.074C20.9033 65.0865 19.6252 63.6977 17.9689 63.36V44.8838L50.0001 21.0574L82.0313 44.8838V65.0553C80.7325 65.2986 79.478 65.8684 78.3985 66.7756L62.8509 79.8443C62.0251 80.5383 61.9184 81.7703 62.6124 82.5961C63.3067 83.4219 64.5386 83.5283 65.3643 82.8344L80.912 69.7656C82.5454 68.3928 84.9678 68.5367 86.4266 70.0934Z" fill="#477ABC"/>
<path d="M28.6424 17.4858C28.2794 17.1226 27.7754 16.9136 27.2618 16.9136C26.746 16.9136 26.2421 17.1226 25.879 17.4858C25.5157 17.8491 25.3087 18.353 25.3087 18.8667C25.3087 19.3804 25.5157 19.8843 25.879 20.2476C26.2442 20.6108 26.7462 20.8198 27.2618 20.8198C27.7754 20.8198 28.2772 20.6108 28.6424 20.2476C29.0057 19.8843 29.2149 19.3804 29.2149 18.8667C29.2149 18.353 29.0059 17.8491 28.6424 17.4858Z" fill="#477ABC"/>
<path d="M57.4687 37.7425C56.5295 37.212 55.3381 37.5435 54.8078 38.4831L41.8106 61.506C41.2803 62.4452 41.6117 63.6366 42.5512 64.1669C42.8547 64.3382 43.1842 64.4196 43.5096 64.4196C44.191 64.4196 44.8531 64.0622 45.2121 63.4263L58.2093 40.4034C58.7396 39.4642 58.4082 38.2728 57.4687 37.7425Z" fill="#477ABC"/>
<path d="M58.6031 52.5202C54.9414 52.5202 51.9625 55.4991 51.9625 59.1609C51.9625 62.8226 54.9414 65.8015 58.6031 65.8015C62.2648 65.8015 65.2437 62.8226 65.2437 59.1609C65.2437 55.4991 62.2648 52.5202 58.6031 52.5202ZM58.6031 61.8952C57.0953 61.8952 55.8688 60.6687 55.8688 59.1609C55.8688 57.653 57.0953 56.4265 58.6031 56.4265C60.1109 56.4265 61.3375 57.653 61.3375 59.1609C61.3375 60.6687 60.1109 61.8952 58.6031 61.8952Z" fill="#477ABC"/>
<path d="M41.4166 33.5954C37.7549 33.5954 34.776 36.5743 34.776 40.2361C34.776 43.8978 37.7549 46.8767 41.4166 46.8767C45.0783 46.8767 48.0572 43.8978 48.0572 40.2361C48.0572 36.5743 45.0783 33.5954 41.4166 33.5954ZM41.4166 42.9704C39.9088 42.9704 38.6823 41.7439 38.6823 40.2361C38.6823 38.7282 39.9088 37.5017 41.4166 37.5017C42.9244 37.5017 44.151 38.7282 44.151 40.2361C44.151 41.7439 42.9244 42.9704 41.4166 42.9704Z" fill="#477ABC"/>
<path d="M12.0253 87.9741C11.6622 87.6108 11.1583 87.4019 10.6446 87.4019C10.131 87.4019 9.62706 87.6108 9.26378 87.9741C8.89855 88.3374 8.69152 88.8413 8.69152 89.355C8.69152 89.8687 8.89855 90.3726 9.26378 90.7359C9.62706 91.0991 10.131 91.3081 10.6446 91.3081C11.1583 91.3081 11.6622 91.0991 12.0253 90.7359C12.3886 90.3726 12.5978 89.8687 12.5978 89.355C12.5978 88.8413 12.3888 88.3374 12.0253 87.9741Z" fill="#477ABC"/>
</svg>
