<svg width="14" height="21" viewBox="0 0 14 21" fill="none" xmlns="http://www.w3.org/2000/svg">
<path d="M7 20.065C2.333 13.975 0 9.642 0 7.065C-1.36979e-08 6.14575 0.18106 5.23549 0.532843 4.38622C0.884626 3.53694 1.40024 2.76526 2.05025 2.11525C2.70026 1.46524 3.47194 0.949625 4.32122 0.597842C5.17049 0.246059 6.08075 0.0649986 7 0.0649986C7.91925 0.0649986 8.8295 0.246059 9.67878 0.597842C10.5281 0.949625 11.2997 1.46524 11.9497 2.11525C12.5998 2.76526 13.1154 3.53694 13.4672 4.38622C13.8189 5.23549 14 6.14575 14 7.065C14 9.642 11.667 13.975 7 20.065ZM7 11.065C8.06087 11.065 9.07828 10.6436 9.82843 9.89343C10.5786 9.14328 11 8.12586 11 7.065C11 6.00413 10.5786 4.98672 9.82843 4.23657C9.07828 3.48643 8.06087 3.065 7 3.065C5.93913 3.065 4.92172 3.48643 4.17157 4.23657C3.42143 4.98672 3 6.00413 3 7.065C3 8.12586 3.42143 9.14328 4.17157 9.89343C4.92172 10.6436 5.93913 11.065 7 11.065Z" fill="#477ABC"/>
</svg>
