<svg width="12" height="21" viewBox="0 0 12 21" fill="none" xmlns="http://www.w3.org/2000/svg">
<path d="M3 0.0649986H9C9.79565 0.0649986 10.5587 0.381069 11.1213 0.943678C11.6839 1.50629 12 2.26935 12 3.065V17.065C12 17.8606 11.6839 18.6237 11.1213 19.1863C10.5587 19.7489 9.79565 20.065 9 20.065H3C2.20435 20.065 1.44129 19.7489 0.87868 19.1863C0.316071 18.6237 0 17.8606 0 17.065V3.065C0 2.26935 0.316071 1.50629 0.87868 0.943678C1.44129 0.381069 2.20435 0.0649986 3 0.0649986ZM6 17.065C6.26522 17.065 6.51957 16.9596 6.70711 16.7721C6.89464 16.5846 7 16.3302 7 16.065C7 15.7998 6.89464 15.5454 6.70711 15.3579C6.51957 15.1704 6.26522 15.065 6 15.065C5.73478 15.065 5.48043 15.1704 5.29289 15.3579C5.10536 15.5454 5 15.7998 5 16.065C5 16.3302 5.10536 16.5846 5.29289 16.7721C5.48043 16.9596 5.73478 17.065 6 17.065Z" fill="#477ABC"/>
</svg>
