<svg width="20" height="20" viewBox="0 0 20 20" fill="none" xmlns="http://www.w3.org/2000/svg">
<path d="M10 20C4.477 20 0 15.523 0 10C0 4.477 4.477 0 10 0C15.523 0 20 4.477 20 10C20 15.523 15.523 20 10 20ZM10 18C12.1217 18 14.1566 17.1571 15.6569 15.6569C17.1571 14.1566 18 12.1217 18 10C18 7.87827 17.1571 5.84344 15.6569 4.34315C14.1566 2.84285 12.1217 2 10 2C7.87827 2 5.84344 2.84285 4.34315 4.34315C2.84285 5.84344 2 7.87827 2 10C2 12.1217 2.84285 14.1566 4.34315 15.6569C5.84344 17.1571 7.87827 18 10 18ZM11.586 11H6C5.73478 11 5.48043 10.8946 5.29289 10.7071C5.10536 10.5196 5 10.2652 5 10C5 9.73478 5.10536 9.48043 5.29289 9.29289C5.48043 9.10536 5.73478 9 6 9H11.586L9.05 6.464C8.95449 6.37175 8.87831 6.26141 8.8259 6.1394C8.77349 6.0174 8.7459 5.88618 8.74475 5.7534C8.7436 5.62062 8.7689 5.48894 8.81918 5.36605C8.86946 5.24315 8.94371 5.1315 9.03761 5.0376C9.1315 4.94371 9.24315 4.86946 9.36605 4.81918C9.48894 4.7689 9.62062 4.7436 9.7534 4.74475C9.88618 4.7459 10.0174 4.77349 10.1394 4.8259C10.2614 4.87831 10.3718 4.95449 10.464 5.05L14.707 9.293C14.8002 9.38565 14.8741 9.49581 14.9246 9.61715C14.9751 9.73848 15.001 9.86859 15.001 10C15.001 10.1314 14.9751 10.2615 14.9246 10.3829C14.8741 10.5042 14.8002 10.6143 14.707 10.707L10.464 14.95C10.3718 15.0455 10.2614 15.1217 10.1394 15.1741C10.0174 15.2265 9.88618 15.2541 9.7534 15.2553C9.62062 15.2564 9.48894 15.2311 9.36605 15.1808C9.24315 15.1305 9.1315 15.0563 9.03761 14.9624C8.94371 14.8685 8.86946 14.7568 8.81918 14.634C8.7689 14.5111 8.7436 14.3794 8.74475 14.2466C8.7459 14.1138 8.77349 13.9826 8.8259 13.8606C8.87831 13.7386 8.95449 13.6282 9.05 13.536L11.586 11Z" fill="#477ABC"/>
</svg>
