<svg width="40" height="40" viewBox="0 0 40 40" fill="none" xmlns="http://www.w3.org/2000/svg">
<circle cx="20" cy="20" r="20" fill="#7C509A"/>
<path d="M26.2539 10.5459C22.4424 9.81803 18.4843 9.81803 14.6728 10.5459C12.9869 10.9099 10.8613 12.9479 10.4948 14.5493C9.83508 17.6792 9.83508 20.8819 10.4948 24.0118C10.9346 25.6131 13.0602 27.6512 14.6728 28.0152C14.7461 28.0152 14.8194 28.0879 14.8194 28.1607V32.7464C14.8194 32.9648 15.1126 33.1103 15.2592 32.892L17.4581 30.6355C17.4581 30.6355 19.2173 28.8158 19.5105 28.5247C19.5105 28.5247 19.5838 28.4519 19.6571 28.4519C21.856 28.5247 24.1283 28.3063 26.3272 27.9424C28.0131 27.5784 30.1387 25.5403 30.5052 23.939C31.1649 20.8091 31.1649 17.6064 30.5052 14.4765C30.0654 12.9479 27.9398 10.9099 26.2539 10.5459ZM26.3272 24.2302C25.9607 24.958 25.5209 25.5403 24.788 25.9043C24.5681 25.9771 24.3482 26.0499 24.1283 26.1227C23.8351 26.0499 23.6152 25.9771 23.3953 25.9043C21.0497 24.958 18.8508 23.6478 17.0916 21.7553C16.1387 20.6635 15.3325 19.4261 14.6728 18.1159C14.3796 17.4608 14.0864 16.8785 13.8665 16.2234C13.6466 15.6411 14.0131 15.0588 14.3796 14.6221C14.7461 14.1853 15.1859 13.8942 15.699 13.6758C16.0654 13.4575 16.4319 13.603 16.7251 13.8942C17.3115 14.6221 17.8979 15.35 18.3377 16.1506C18.6309 16.6601 18.5576 17.2425 18.0445 17.6064C17.8979 17.6792 17.8246 17.752 17.678 17.8976C17.6047 17.9703 17.4581 18.0431 17.3848 18.1887C17.2382 18.4071 17.2382 18.6254 17.3115 18.8438C17.8979 20.5179 18.9974 21.8281 20.6832 22.556C20.9764 22.7016 21.1963 22.7744 21.5628 22.7744C22.0759 22.7016 22.2958 22.1193 22.6623 21.8281C23.0288 21.537 23.4686 21.537 23.9084 21.7553C24.2749 21.9737 24.6414 22.2649 25.0811 22.556C25.4476 22.8472 25.8141 23.0655 26.1806 23.3567C26.4005 23.5023 26.4738 23.8662 26.3272 24.2302ZM23.2487 18.771C23.1021 18.771 23.1754 18.771 23.2487 18.771C22.9555 18.771 22.8822 18.6254 22.8089 18.4071C22.8089 18.2615 22.8089 18.0431 22.7356 17.8976C22.6623 17.6064 22.5157 17.3152 22.2225 17.0969C22.0759 17.0241 21.9293 16.9513 21.7827 16.8785C21.5628 16.8057 21.4162 16.8057 21.1963 16.8057C20.9764 16.7329 20.9031 16.5874 20.9031 16.369C20.9031 16.2234 21.123 16.0778 21.2696 16.0778C22.4424 16.1506 23.322 16.8057 23.4686 18.1887C23.4686 18.2615 23.4686 18.4071 23.4686 18.4799C23.4686 18.6254 23.3953 18.771 23.2487 18.771ZM22.5157 15.5683C22.1492 15.4227 21.7827 15.2772 21.3429 15.2044C21.1963 15.2044 20.9764 15.1316 20.8298 15.1316C20.6099 15.1316 20.4634 14.986 20.5366 14.7676C20.5366 14.5493 20.6832 14.4037 20.9031 14.4765C21.6361 14.5493 22.2958 14.6949 22.9555 14.986C24.2749 15.6411 25.0079 16.7329 25.2277 18.1887C25.2277 18.2615 25.2277 18.3343 25.2277 18.4071C25.2277 18.5526 25.2277 18.6982 25.2277 18.9166C25.2277 18.9894 25.2277 19.0622 25.2277 19.135C25.1545 19.4261 24.6414 19.4989 24.5681 19.135C24.5681 19.0622 24.4948 18.9166 24.4948 18.8438C24.4948 18.1887 24.3482 17.5336 24.055 16.9513C23.6152 16.2962 23.1021 15.8595 22.5157 15.5683ZM26.4738 19.9356C26.2539 19.9356 26.1073 19.7173 26.1073 19.4989C26.1073 19.0622 26.034 18.6254 25.9607 18.1887C25.6675 15.8595 23.7618 13.967 21.4895 13.603C21.123 13.5302 20.7565 13.5302 20.4634 13.4575C20.2435 13.4575 19.9503 13.4575 19.877 13.1663C19.8037 12.9479 20.0236 12.7296 20.2435 12.7296C20.3168 12.7296 20.3901 12.7296 20.3901 12.7296C23.3953 12.8024 20.5367 12.7296 20.3901 12.7296C23.4686 12.8024 26.034 14.8404 26.5471 17.8976C26.6204 18.4071 26.6937 18.9166 26.6937 19.4989C26.8403 19.7173 26.6937 19.9356 26.4738 19.9356Z" fill="white"/>
</svg>
