<svg width="40" height="40" viewBox="0 0 40 40" fill="none" xmlns="http://www.w3.org/2000/svg">
<circle cx="20" cy="20" r="20" fill="#7294C7"/>
<path d="M29.806 25.1153C29.806 25.0322 29.723 25.0322 29.723 24.9492C29.3909 24.285 28.6437 23.4548 27.6474 22.5416C27.1493 22.1264 26.9002 21.7943 26.7342 21.6283C26.4851 21.2962 26.4851 21.0471 26.5681 20.715C26.6512 20.466 26.9832 20.0509 27.5644 19.3036C27.8965 18.8885 28.0625 18.6395 28.3116 18.3904C29.5569 16.7299 30.1381 15.6506 29.972 15.1525L29.889 15.0695C29.806 14.9865 29.723 14.9034 29.5569 14.9034C29.3909 14.8204 29.1418 14.8204 28.8928 14.9034H25.7379C25.6549 14.9034 25.6549 14.9034 25.4888 14.9034C25.4058 14.9034 25.3228 14.9034 25.3228 14.9034H25.2398H25.1567L25.0737 14.9865C24.9907 15.0695 24.9907 15.0695 24.9907 15.1525C24.6586 16.0658 24.2435 16.813 23.8284 17.6432C23.5793 18.0583 23.3302 18.4734 23.0812 18.8055C22.8321 19.1376 22.666 19.3867 22.5 19.5527C22.3339 19.7188 22.1679 19.8018 22.0849 19.9678C22.0018 20.0509 21.8358 20.1339 21.8358 20.0509C21.7528 20.0509 21.6698 20.0509 21.6698 19.9678C21.5867 19.8848 21.5037 19.8018 21.4207 19.7188C21.3377 19.6357 21.3377 19.4697 21.2546 19.3036C21.2546 19.1376 21.2546 18.9716 21.2546 18.8885C21.2546 18.8055 21.2546 18.5564 21.2546 18.3904C21.2546 18.1413 21.2546 17.9753 21.2546 17.8923C21.2546 17.6432 21.2546 17.3111 21.2546 16.979C21.2546 16.6469 21.2546 16.3978 21.2546 16.2318C21.2546 16.0658 21.2546 15.8167 21.2546 15.6506C21.2546 15.4016 21.2546 15.2355 21.2546 15.1525C21.2546 15.0695 21.1716 14.9034 21.1716 14.8204C21.0886 14.7374 21.0056 14.6544 20.9226 14.5713C20.8395 14.4883 20.6735 14.4883 20.5905 14.4053C20.1754 14.3223 19.6772 14.2393 19.0961 14.2393C17.7677 14.2393 16.8544 14.3223 16.5223 14.4883C16.3563 14.5714 16.1903 14.6544 16.1072 14.8204C15.9412 14.9865 15.9412 15.0695 16.0242 15.0695C16.4393 15.1525 16.7714 15.3185 16.9375 15.5676L17.0205 15.7337C17.1035 15.8167 17.1035 15.9827 17.1865 16.2318C17.2695 16.4809 17.2696 16.7299 17.2696 17.062C17.2696 17.5602 17.2696 18.0583 17.2696 18.3904C17.2696 18.8055 17.1865 19.0546 17.1865 19.3036C17.1865 19.5527 17.1035 19.7188 17.0205 19.8018C16.9375 19.9678 16.9375 20.0509 16.8544 20.0509C16.8544 20.0509 16.8544 20.1339 16.7714 20.1339C16.6884 20.1339 16.6054 20.2169 16.4393 20.2169C16.3563 20.2169 16.1903 20.1339 16.1072 20.0509C15.9412 19.9678 15.7751 19.8018 15.6921 19.6357C15.5261 19.4697 15.36 19.2206 15.194 18.8885C15.0279 18.5564 14.7789 18.2244 14.6128 17.7262L14.4468 17.3941C14.3638 17.2281 14.1977 16.896 14.0317 16.4809C13.8656 16.0658 13.6996 15.7337 13.5335 15.3186C13.4505 15.1525 13.3675 15.0695 13.2845 14.9865H13.2014C13.2014 14.9865 13.1184 14.9034 13.0354 14.9034C12.9524 14.9034 12.8693 14.8204 12.7863 14.8204H9.79749C9.4654 14.8204 9.29935 14.9034 9.21633 14.9865L9.1333 15.0695C9.1333 15.0695 9.1333 15.1525 9.1333 15.2355C9.1333 15.3186 9.13331 15.4016 9.21633 15.5676C9.63144 16.5639 10.1296 17.5602 10.6277 18.5564C11.1259 19.4697 11.624 20.2999 11.9561 20.8811C12.3712 21.4623 12.7033 22.0434 13.1184 22.5416C13.5335 23.0397 13.7826 23.3718 13.8656 23.5378C14.0317 23.7039 14.1147 23.7869 14.1977 23.8699L14.4468 24.119C14.6128 24.285 14.8619 24.5341 15.194 24.7832C15.5261 25.0322 15.9412 25.2813 16.3563 25.5304C16.7714 25.7794 17.2696 25.9455 17.7677 26.1115C18.3489 26.2776 18.847 26.3606 19.3451 26.2776H20.5905C20.8395 26.2776 21.0056 26.1946 21.1716 26.0285L21.2546 25.9455C21.2546 25.8625 21.3377 25.8625 21.3377 25.7794C21.3377 25.6964 21.3377 25.6134 21.3377 25.4474C21.3377 25.1153 21.3377 24.8662 21.4207 24.6171C21.5037 24.3681 21.5037 24.202 21.5868 24.036C21.6698 23.8699 21.7528 23.7869 21.8358 23.7039C21.9188 23.6208 22.0019 23.5378 22.0019 23.5378H22.0849C22.2509 23.4548 22.5 23.5378 22.666 23.7039C22.9151 23.8699 23.1642 24.119 23.3302 24.3681C23.4963 24.6171 23.7453 24.8662 24.0774 25.1983C24.4095 25.5304 24.6586 25.7794 24.8246 25.8625L25.0737 26.0285C25.2397 26.1115 25.4058 26.1946 25.6549 26.2776C25.9039 26.3606 26.07 26.3606 26.236 26.3606L29.0588 26.2776C29.3079 26.2776 29.5569 26.1946 29.723 26.1115C29.889 26.0285 29.972 25.9455 29.972 25.7794C29.972 25.6964 29.972 25.5304 29.972 25.4474C29.806 25.2813 29.806 25.1983 29.806 25.1153Z" fill="white"/>
</svg>
