<svg width="100" height="100" viewBox="0 0 100 100" fill="none" xmlns="http://www.w3.org/2000/svg">
<path d="M93.8357 16.4717L93.7027 16.4485C78.5201 13.7864 64.16 8.34925 51.0213 0.288502C50.3934 -0.0966544 49.602 -0.0960684 48.9748 0.29065C35.9277 8.3344 21.6576 13.7549 6.56074 16.4022L6.16367 16.4717C5.2293 16.6356 4.54785 17.4469 4.54785 18.3955V43.9612C4.54785 56.9826 9.04219 69.742 17.2031 79.8891C25.3639 90.036 36.8625 97.1621 49.5809 99.9547C49.7191 99.9848 49.8594 100 50 100C50.1408 100 50.2816 99.9848 50.4199 99.9545C63.1394 97.1555 74.6385 90.0237 82.7982 79.8729C90.9582 69.7221 95.4521 56.9592 95.4521 43.9352V18.3955C95.4521 17.4465 94.7703 16.6352 93.8357 16.4717ZM91.5461 43.9352C91.5461 68.6905 74.1004 90.5362 49.9996 96.0453C25.8994 90.5479 8.4541 68.7135 8.4541 43.9612V20.0297C23.1969 17.2953 37.1643 11.9871 50.0027 4.23928C62.8527 11.9584 76.8154 17.2643 91.5461 20.0268V43.9352Z" fill="#477ABC"/>
<path d="M49.9556 14.1911C50.2829 14.1911 50.6146 14.1087 50.9194 13.9355L50.9394 13.9244C50.9402 13.9238 50.956 13.915 50.9567 13.9146C51.8966 13.3867 52.2235 12.2009 51.6964 11.2607C51.1689 10.3202 49.9718 9.98959 49.0314 10.5158L48.9884 10.54C48.0507 11.0732 47.723 12.2656 48.2562 13.2033C48.6161 13.8361 49.2761 14.1911 49.9556 14.1911Z" fill="#477ABC"/>
<path d="M41.3563 14.4965C32.9284 18.5162 24.0282 21.6223 14.9032 23.7277C14.0169 23.9322 13.3892 24.7213 13.3892 25.6309V43.9348C13.3892 46.0506 13.5319 48.1869 13.813 50.2842C13.9442 51.2652 14.7827 51.9779 15.7462 51.9779C15.8325 51.9779 15.92 51.9723 16.0081 51.9603C17.0772 51.817 17.8276 50.8342 17.6843 49.765C17.4261 47.8392 17.2952 45.8775 17.2952 43.9348V27.1752C26.1673 25.0178 34.8206 21.9416 43.0378 18.0223C44.0116 17.558 44.4243 16.3922 43.9601 15.4186C43.4954 14.4449 42.3294 14.0324 41.3563 14.4965Z" fill="#477ABC"/>
<path d="M84.6575 23.6777C83.579 23.6777 82.7044 24.5521 82.7044 25.6309V43.9348C82.7044 61.2992 72.4448 77.2313 56.5667 84.5236C55.5866 84.9738 55.1567 86.1334 55.6069 87.1137C55.936 87.8299 56.6436 88.2522 57.3831 88.2522C57.6559 88.2522 57.9331 88.1947 58.1969 88.0734C66.5692 84.2283 73.6758 78.0729 78.7493 70.2725C83.8923 62.365 86.6106 53.2576 86.6106 43.9348V25.6309C86.6106 24.5523 85.736 23.6777 84.6575 23.6777Z" fill="#477ABC"/>
<path d="M49.5734 87.0437L49.499 87.0634C48.4564 87.3402 47.8355 88.4095 48.1122 89.4521C48.3443 90.3271 49.1343 90.9048 49.9986 90.9048C50.1644 90.9048 50.3331 90.8837 50.5009 90.839L50.5753 90.8192C51.6179 90.5425 52.2388 89.4732 51.962 88.4306C51.6853 87.3874 50.6154 86.7669 49.5734 87.0437Z" fill="#477ABC"/>
</svg>
